<svg width="650" height="182" viewBox="0 0 650 182" fill="none" xmlns="http://www.w3.org/2000/svg">
<path d="M214.486 94.4893V27.1196L271.368 26.9307C278.864 26.9307 284.407 28.5055 287.998 31.655C291.651 34.7416 293.478 39.403 293.478 45.6392C293.478 51.8754 291.399 56.4423 287.242 59.3399C290.013 60.8517 292.061 62.8674 293.383 65.3871C294.706 67.8438 295.368 71.0249 295.368 74.9303C295.368 81.2925 293.541 86.1429 289.887 89.4814C286.297 92.757 280.754 94.3948 273.258 94.3948L214.486 94.4893ZM269.573 39.0251H229.604V54.1431H269.573C275.305 54.1431 278.171 51.5604 278.171 46.3951C278.171 41.4817 275.305 39.0251 269.573 39.0251ZM271.462 66.2375H229.604V82.3004H271.462C277.195 82.3004 280.061 79.5917 280.061 74.1744C280.061 68.8831 277.195 66.2375 271.462 66.2375Z" fill="#8B9199"/>
<path d="M304.327 94.4893V45.8282H318.028V94.4893H304.327ZM304.233 37.7967V27.1196H318.122V37.7967H304.233Z" fill="#8B9199"/>
<path d="M353.733 94.4893C348.253 94.4893 344.221 93.1349 341.639 90.4263C339.056 87.6547 337.765 84.0326 337.765 79.5602V56.6942H323.686V45.8282H337.765V30.8991H351.465V45.8282H371.686V56.6942H351.465V77.8595C351.465 81.702 353.355 83.6232 357.135 83.6232H374.331V94.4893H353.733Z" fill="#8B9199"/>
<path d="M381.375 94.4893V45.8282H418.603C424.083 45.8282 428.115 47.214 430.698 49.9856C433.28 52.6943 434.572 56.2848 434.572 60.7572V70.8674H420.682V62.458C420.682 58.6785 418.792 56.7887 415.013 56.7887H395.265V94.4893H381.375Z" fill="#8B9199"/>
<path d="M468.881 94.9617C460.44 94.9617 453.857 92.883 449.133 88.7255C444.409 84.5051 442.046 78.3319 442.046 70.206C442.046 62.017 444.409 55.8439 449.133 51.6864C453.857 47.466 460.44 45.3557 468.881 45.3557H486.361C494.802 45.3557 501.385 47.466 506.109 51.6864C510.833 55.8439 513.196 62.017 513.196 70.206C513.196 78.3319 510.833 84.5051 506.109 88.7255C501.385 92.883 494.802 94.9617 486.361 94.9617H468.881ZM468.881 84.0956H486.361C490.456 84.0956 493.574 82.9618 495.715 80.6941C497.92 78.4264 499.022 74.9303 499.022 70.206C499.022 65.4186 497.92 61.8911 495.715 59.6234C493.574 57.3557 490.456 56.2218 486.361 56.2218H468.881C464.786 56.2218 461.637 57.3557 459.432 59.6234C457.29 61.8911 456.22 65.4186 456.22 70.206C456.22 74.9303 457.29 78.4264 459.432 80.6941C461.637 82.9618 464.786 84.0956 468.881 84.0956Z" fill="#8B9199"/>
<path d="M546.667 94.9617C538.226 94.9617 531.643 92.883 526.919 88.7255C522.195 84.5051 519.833 78.3319 519.833 70.206C519.833 62.017 522.195 55.8439 526.919 51.6864C531.643 47.466 538.226 45.3557 546.667 45.3557H578.32V56.2218H546.667C542.573 56.2218 539.423 57.3557 537.218 59.6234C535.077 61.8911 534.006 65.4186 534.006 70.206C534.006 74.9303 535.077 78.4264 537.218 80.6941C539.423 82.9618 542.573 84.0956 546.667 84.0956H579.265V94.9617H546.667Z" fill="#8B9199"/>
<path d="M586.313 94.4893V26.9307H600.014V45.8282H632.707C638.25 45.8282 642.47 47.151 645.368 49.7967C648.329 52.3793 649.809 56.0958 649.809 60.9462C649.809 68.8831 646.03 73.6075 638.471 75.1193L649.998 94.4893H634.596L623.447 75.6862H600.014V94.4893H586.313ZM632.045 56.5998H600.014V64.9147H632.045C633.305 64.9147 634.282 64.5367 634.974 63.7808C635.73 63.0249 636.108 61.9856 636.108 60.6627C636.108 57.9541 634.754 56.5998 632.045 56.5998Z" fill="#8B9199"/>
<path d="M214.174 154.112V122.922L241.501 122.835C245.103 122.835 247.766 123.564 249.491 125.022C251.246 126.451 252.124 128.609 252.124 131.496C252.124 134.383 251.125 136.498 249.128 137.839C250.459 138.539 251.443 139.472 252.078 140.639C252.714 141.776 253.032 143.249 253.032 145.057C253.032 148.002 252.154 150.248 250.399 151.794C248.674 153.31 246.011 154.068 242.409 154.068L214.174 154.112ZM240.639 128.434H221.437V135.433H240.639C243.393 135.433 244.77 134.238 244.77 131.846C244.77 129.572 243.393 128.434 240.639 128.434ZM241.547 141.033H221.437V148.469H241.547C244.301 148.469 245.678 147.215 245.678 144.707C245.678 142.257 244.301 141.033 241.547 141.033Z" fill="#8B9199"/>
<path d="M257.336 154.112V122.835H263.918V154.112H257.336Z" fill="#8B9199"/>
<path d="M280.89 154.331C276.835 154.331 273.673 153.368 271.403 151.444C269.133 149.49 267.998 146.632 267.998 142.87C267.998 139.079 269.133 136.221 271.403 134.296C273.673 132.342 276.835 131.365 280.89 131.365H289.288C293.344 131.365 296.506 132.342 298.776 134.296C301.046 136.221 302.18 139.079 302.18 142.87C302.18 146.632 301.046 149.49 298.776 151.444C296.506 153.368 293.344 154.331 289.288 154.331H280.89ZM280.89 149.3H289.288C291.256 149.3 292.754 148.775 293.782 147.725C294.842 146.676 295.371 145.057 295.371 142.87C295.371 140.653 294.842 139.02 293.782 137.97C292.754 136.921 291.256 136.396 289.288 136.396H280.89C278.923 136.396 277.41 136.921 276.351 137.97C275.322 139.02 274.808 140.653 274.808 142.87C274.808 145.057 275.322 146.676 276.351 147.725C277.41 148.775 278.923 149.3 280.89 149.3Z" fill="#8B9199"/>
<path d="M318.261 154.331C314.206 154.331 311.043 153.368 308.774 151.444C306.504 149.49 305.369 146.632 305.369 142.87C305.369 139.079 306.504 136.221 308.774 134.296C311.043 132.342 314.206 131.365 318.261 131.365H333.468V136.396H318.261C316.294 136.396 314.781 136.921 313.722 137.97C312.693 139.02 312.178 140.653 312.178 142.87C312.178 145.057 312.693 146.676 313.722 147.725C314.781 148.775 316.294 149.3 318.261 149.3H333.922V154.331H318.261Z" fill="#8B9199"/>
<path d="M337.308 154.112V122.835H343.891V131.584H359.597C362.26 131.584 364.288 132.196 365.68 133.421C367.102 134.617 367.814 136.337 367.814 138.583C367.814 142.257 365.998 144.445 362.366 145.145L367.904 154.112H360.505L355.149 145.407H343.891V154.112H337.308ZM359.279 136.571H343.891V140.42H359.279C359.885 140.42 360.354 140.245 360.687 139.895C361.05 139.545 361.231 139.064 361.231 138.452C361.231 137.198 360.581 136.571 359.279 136.571Z" fill="#8B9199"/>
<path d="M383.516 154.331C379.461 154.331 376.298 153.368 374.028 151.444C371.759 149.49 370.624 146.632 370.624 142.87C370.624 139.079 371.759 136.221 374.028 134.296C376.298 132.342 379.461 131.365 383.516 131.365H398.723V136.396H383.516C381.549 136.396 380.036 136.921 378.976 137.97C377.947 139.02 377.433 140.653 377.433 142.87C377.433 145.057 377.947 146.676 378.976 147.725C380.036 148.775 381.549 149.3 383.516 149.3H399.177V154.331H383.516Z" fill="#8B9199"/>
<path d="M402.563 154.112V122.835H409.145V131.584H422.945C425.608 131.584 427.545 132.225 428.756 133.509C429.997 134.763 430.617 136.425 430.617 138.495V154.112H424.035V139.239C424.035 137.489 423.127 136.614 421.311 136.614H409.145V154.112H402.563Z" fill="#8B9199"/>
<path d="M441.587 154.112C439.136 154.112 437.259 153.514 435.958 152.319C434.657 151.123 434.006 149.417 434.006 147.201C434.006 145.013 434.657 143.322 435.958 142.126C437.259 140.93 439.136 140.333 441.587 140.333H459.018V139.283C459.018 137.504 458.111 136.614 456.295 136.614H437.047V131.584H458.02C460.774 131.584 462.726 132.196 463.876 133.421C465.026 134.617 465.601 136.308 465.601 138.495V154.112H441.587ZM442.767 149.082H459.018V145.363H442.767C442.192 145.363 441.738 145.538 441.405 145.888C441.103 146.209 440.951 146.646 440.951 147.201C440.951 147.755 441.103 148.207 441.405 148.557C441.738 148.907 442.192 149.082 442.767 149.082Z" fill="#8B9199"/>
<path d="M470.611 154.112V131.584H477.193V154.112H470.611ZM470.565 127.866V122.922H477.238V127.866H470.565Z" fill="#8B9199"/>
<path d="M482.181 154.112V131.584H502.563C505.226 131.584 507.163 132.225 508.374 133.509C509.615 134.763 510.235 136.425 510.235 138.495V154.112H503.653V139.239C503.653 137.489 502.745 136.614 500.929 136.614H488.763V154.112H482.181Z" fill="#8B9199"/>
<path d="M132.646 105.519L170.122 50.1199C170.376 49.7145 170.521 49.2513 170.545 48.774C170.569 48.2968 170.471 47.8212 170.261 47.3923C170.05 46.9635 169.733 46.5956 169.341 46.3234C168.948 46.0512 168.492 45.8837 168.017 45.8368L94.047 37.9729L132.646 105.519Z" fill="#8B9199"/>
<path d="M167.88 69.9198L141.422 113.382L168.652 129.672C168.865 129.812 169.113 129.892 169.368 129.902C169.623 129.912 169.876 129.853 170.099 129.73C170.323 129.608 170.509 129.426 170.638 129.205C170.766 128.985 170.832 128.733 170.828 128.478V70.6219C170.874 70.4283 170.882 70.2275 170.85 70.0309C170.819 69.8344 170.749 69.646 170.644 69.4765C170.54 69.3069 170.404 69.1596 170.242 69.0429C170.081 68.9262 169.899 68.8425 169.705 68.7964C169.512 68.7502 169.311 68.7427 169.114 68.7742C168.918 68.8057 168.73 68.8757 168.56 68.98C168.391 69.0843 168.243 69.221 168.127 69.3822C168.01 69.5435 167.926 69.7261 167.88 69.9198Z" fill="#8B9199"/>
<path d="M164.087 31.4418L94.9589 0.266893C94.5268 0.0637967 94.05 -0.0256968 93.5737 0.00689601C93.0974 0.0394889 92.6373 0.193085 92.2368 0.453152C91.8364 0.713219 91.5088 1.07117 91.2852 1.49317C91.0615 1.91516 90.9491 2.38724 90.9586 2.8648V26.1758L163.244 34.11C163.587 34.1864 163.946 34.1314 164.25 33.9559C164.555 33.7804 164.782 33.4972 164.888 33.1621C164.994 32.8271 164.97 32.4645 164.822 32.146C164.673 31.8275 164.411 31.5763 164.087 31.4418Z" fill="#8B9199"/>
<path d="M135.172 123.071L107.1 173.836C106.793 174.372 106.667 174.994 106.74 175.608C106.814 176.222 107.083 176.797 107.508 177.246C107.934 177.695 108.492 177.995 109.101 178.101C109.71 178.208 110.337 178.116 110.89 177.838L164.508 142.731C164.711 142.605 164.878 142.429 164.995 142.22C165.111 142.011 165.172 141.776 165.172 141.537C165.172 141.298 165.111 141.063 164.995 140.854C164.878 140.645 164.711 140.469 164.508 140.344L135.172 123.071Z" fill="#8B9199"/>
<path d="M85.2743 119.068H46.4645L80.4318 178.89C80.9405 179.718 81.6527 180.401 82.5004 180.876C83.3481 181.35 84.3031 181.599 85.2743 181.599C86.2454 181.599 87.2004 181.35 88.0481 180.876C88.8958 180.401 89.608 179.718 90.1167 178.89L124.084 119.068H85.2743Z" fill="#8B9199"/>
<path d="M2.17966 129.672L29.1289 113.312L2.67092 69.9198C2.49317 69.6729 2.24346 69.4871 1.95601 69.3879C1.66856 69.2886 1.35744 69.2807 1.06534 69.3653C0.77324 69.4499 0.514436 69.6228 0.324435 69.8604C0.134434 70.0979 0.0225243 70.3885 0.00405848 70.6921L0.00405848 128.478C0.000254225 128.733 0.0660902 128.985 0.194459 129.205C0.322827 129.426 0.508884 129.608 0.732623 129.73C0.956361 129.853 1.2093 129.912 1.46427 129.902C1.71923 129.892 1.96657 129.812 2.17966 129.672Z" fill="#8B9199"/>
<path d="M35.3784 123.072L6.39388 140.134C6.19076 140.26 6.02316 140.435 5.90693 140.644C5.79069 140.853 5.72967 141.088 5.72967 141.327C5.72967 141.566 5.79069 141.801 5.90693 142.01C6.02316 142.219 6.19076 142.395 6.39388 142.521L60.0117 177.628C60.5641 177.906 61.1912 177.998 61.8003 177.891C62.4093 177.785 62.9679 177.485 63.3931 177.036C63.8183 176.587 64.0877 176.012 64.1612 175.398C64.2348 174.784 64.1086 174.162 63.8014 173.626L35.7293 122.861L35.3784 123.072Z" fill="#8B9199"/>
<path d="M7.3016 34.11L79.5873 26.1758V2.8648C79.5968 2.38724 79.4844 1.91516 79.2608 1.49317C79.0371 1.07117 78.7096 0.713219 78.3091 0.453152C77.9087 0.193085 77.4485 0.0394889 76.9722 0.00689601C76.4959 -0.0256968 76.0192 0.0637967 75.5871 0.266893L6.45944 31.4418C6.13494 31.5763 5.87261 31.8275 5.72424 32.146C5.57586 32.4645 5.55221 32.8271 5.65798 33.1621C5.76374 33.4972 5.99123 33.7804 6.29552 33.9559C6.59981 34.1314 6.95878 34.1864 7.3016 34.11Z" fill="#8B9199"/>
<path d="M37.9028 105.519L76.502 37.9729L2.53189 45.8368C2.05652 45.8837 1.60099 46.0512 1.20838 46.3234C0.815763 46.5956 0.499068 46.9635 0.288262 47.3923C0.0774566 47.8212 -0.0205101 48.2968 0.00367942 48.774C0.027869 49.2513 0.173403 49.7145 0.426484 50.1199L37.9028 105.519Z" fill="#8B9199"/>
</svg>
