<svg width="532" height="182" viewBox="0 0 532 182" fill="none" xmlns="http://www.w3.org/2000/svg">
<path d="M446.102 85.34V31H457.122V46.2H483.418C487.877 46.2 491.271 47.264 493.602 49.392C495.983 51.469 497.174 54.459 497.174 58.36C497.174 64.744 494.134 68.544 488.054 69.76L497.326 85.34H484.938L475.97 70.216H457.122V85.34H446.102ZM482.886 54.864H457.122V61.552H482.886C483.899 61.552 484.685 61.248 485.242 60.64C485.85 60.032 486.154 59.196 486.154 58.132C486.154 55.953 485.065 54.864 482.886 54.864Z" fill="white"/>
<path d="M414.213 85.72C407.424 85.72 402.129 84.048 398.329 80.704C394.529 77.309 392.629 72.344 392.629 65.808C392.629 59.221 394.529 54.256 398.329 50.912C402.129 47.517 407.424 45.82 414.213 45.82H439.673V54.56H414.213C410.92 54.56 408.387 55.472 406.613 57.296C404.891 59.12 404.029 61.957 404.029 65.808C404.029 69.608 404.891 72.42 406.613 74.244C408.387 76.068 410.92 76.98 414.213 76.98H440.433V85.72H414.213Z" fill="white"/>
<path d="M351.647 85.72C344.857 85.72 339.563 84.048 335.763 80.704C331.963 77.309 330.062 72.344 330.062 65.808C330.062 59.221 331.963 54.256 335.763 50.912C339.563 47.517 344.857 45.82 351.647 45.82H365.707C372.496 45.82 377.791 47.517 381.591 50.912C385.391 54.256 387.29 59.221 387.29 65.808C387.29 72.344 385.391 77.309 381.591 80.704C377.791 84.048 372.496 85.72 365.707 85.72H351.647ZM351.647 76.98H365.707C369 76.98 371.507 76.068 373.23 74.244C375.003 72.42 375.891 69.608 375.891 65.808C375.891 61.957 375.003 59.12 373.23 57.296C371.507 55.472 369 54.56 365.707 54.56H351.647C348.353 54.56 345.82 55.472 344.047 57.296C342.324 59.12 341.462 61.957 341.462 65.808C341.462 69.608 342.324 72.42 344.047 74.244C345.82 76.068 348.353 76.98 351.647 76.98Z" fill="white"/>
<path d="M281.262 85.34V46.2H311.206C315.614 46.2 318.857 47.315 320.934 49.544C323.011 51.723 324.05 54.611 324.05 58.208V66.34H312.878V59.576C312.878 56.536 311.358 55.016 308.318 55.016H292.434V85.34H281.262Z" fill="white"/>
<path d="M209 85.34V31.152L254.752 31C260.782 31 265.24 32.2666 268.128 34.8C271.067 37.2826 272.536 41.032 272.536 46.048C272.536 51.064 270.864 54.737 267.52 57.068C269.75 58.284 271.396 59.905 272.46 61.932C273.524 63.908 274.056 66.467 274.056 69.608C274.056 74.725 272.587 78.627 269.648 81.312C266.76 83.947 262.302 85.264 256.272 85.264L209 85.34ZM253.308 40.728H221.16V52.888H253.308C257.919 52.888 260.224 50.811 260.224 46.656C260.224 42.704 257.919 40.728 253.308 40.728ZM254.828 62.616H221.16V75.536H254.828C259.439 75.536 261.744 73.357 261.744 69C261.744 64.744 259.439 62.616 254.828 62.616Z" fill="white"/>
<path d="M398.295 140.28C393.65 140.28 390.027 139.136 387.427 136.848C384.827 134.525 383.527 131.128 383.527 126.656C383.527 122.149 384.827 118.752 387.427 116.464C390.027 114.141 393.65 112.98 398.295 112.98H411.295C414.346 112.98 416.669 113.708 418.263 115.164C419.893 116.585 420.707 118.631 420.707 121.3C420.707 126.743 417.57 129.464 411.295 129.464H391.639C392.367 132.688 394.586 134.3 398.295 134.3H419.355V140.28H398.295ZM398.295 118.96C394.725 118.96 392.523 120.468 391.691 123.484H410.931C411.625 123.484 412.162 123.276 412.543 122.86C412.959 122.444 413.167 121.872 413.167 121.144C413.167 119.688 412.422 118.96 410.931 118.96H398.295Z" fill="white"/>
<path d="M352.47 151.72V145.74H368.174C370.254 145.74 371.294 144.683 371.294 142.568V140.02H359.854C355.209 140.02 351.586 138.876 348.986 136.588C346.386 134.3 345.086 130.989 345.086 126.656C345.086 122.288 346.386 118.96 348.986 116.672C351.586 114.384 355.209 113.24 359.854 113.24H378.834V143.504C378.834 145.965 378.123 147.941 376.702 149.432C375.281 150.957 373.062 151.72 370.046 151.72H352.47ZM359.854 134.04H371.294V119.22H359.854C357.601 119.22 355.867 119.844 354.654 121.092C353.475 122.305 352.886 124.16 352.886 126.656C352.886 129.117 353.475 130.972 354.654 132.22C355.867 133.433 357.601 134.04 359.854 134.04Z" fill="white"/>
<path d="M340.399 140.02H332.859V102.84H340.399V140.02ZM339.099 140.02H321.159C316.513 140.02 312.891 138.876 310.291 136.588C307.691 134.3 306.391 130.989 306.391 126.656C306.391 122.288 307.691 118.96 310.291 116.672C312.891 114.384 316.513 113.24 321.159 113.24H338.579V119.22H321.159C318.905 119.22 317.172 119.844 315.959 121.092C314.78 122.305 314.191 124.16 314.191 126.656C314.191 129.117 314.78 130.972 315.959 132.22C317.172 133.433 318.905 134.04 321.159 134.04H339.099V140.02Z" fill="white"/>
<path d="M294.177 140.02V113.24H301.717V140.02H294.177ZM294.125 108.82V102.944H301.769V108.82H294.125Z" fill="white"/>
<path d="M260.764 140.02V113.24H281.252C284.268 113.24 286.486 114.003 287.908 115.528C289.329 117.019 290.04 118.995 290.04 121.456V127.02H282.396V122.392C282.396 120.312 281.356 119.272 279.276 119.272H268.408V140.02H260.764Z" fill="white"/>
<path d="M211.32 140.02V102.944L242.624 102.84C246.75 102.84 249.8 103.707 251.776 105.44C253.787 107.139 254.792 109.704 254.792 113.136C254.792 116.568 253.648 119.081 251.36 120.676C252.886 121.508 254.012 122.617 254.74 124.004C255.468 125.356 255.832 127.107 255.832 129.256C255.832 132.757 254.827 135.427 252.816 137.264C250.84 139.067 247.79 139.968 243.664 139.968L211.32 140.02ZM241.636 109.496H219.64V117.816H241.636C244.791 117.816 246.368 116.395 246.368 113.552C246.368 110.848 244.791 109.496 241.636 109.496ZM242.676 124.472H219.64V133.312H242.676C245.831 133.312 247.408 131.821 247.408 128.84C247.408 125.928 245.831 124.472 242.676 124.472Z" fill="white"/>
<path d="M138 19H74C51.9086 19 34 36.9086 34 59V123C34 145.091 51.9086 163 74 163H138C160.091 163 178 145.091 178 123V59C178 36.9086 160.091 19 138 19Z" fill="url(#paint0_linear_364_19)"/>
<path d="M74.5998 116.458L65.0526 111.684L61.625 125.88H86.5259L84.147 111.684L74.5998 116.458Z" fill="white"/>
<path d="M141.853 55.5438L137.768 54.2604L135.451 101.84H133.886L136.171 54.7769L133.73 55.5438L128.486 101.84H83.8807L78.7002 55.5438L74.6153 54.2604L72.3145 101.84H70.7494L73.0345 54.7769L70.5929 55.5438L65.3185 101.84H43.0156V110.824H63.9255C65.4102 110.82 66.8745 111.169 68.1983 111.841L74.5996 115.112L81.0009 111.857C82.3247 111.184 83.789 110.836 85.2737 110.839H127.093C128.578 110.836 130.042 111.184 131.366 111.857L137.768 115.112L144.169 111.857C145.491 111.179 146.956 110.825 148.442 110.824H169.352V101.84H147.049L141.853 55.5438Z" fill="white"/>
<path d="M137.768 116.458L128.221 111.684L124.793 125.88H149.678L147.315 111.684L137.768 116.458Z" fill="white"/>
<path d="M169.352 87.3156V86.7052C151.572 76.8607 144.419 51.8658 144.059 50.5824L144.466 49.7529L138.002 48L131.742 49.6747L132.024 50.4259C123.744 58.455 114.807 62.4773 105.745 62.2269C91.3307 61.773 81.0166 50.5824 80.907 50.4729L81.2357 49.7686L74.8813 48L68.6209 49.6747L68.84 50.2694C68.5426 51.3493 61.0144 77.252 43 87.0496V87.7069C61.4683 77.9093 68.84 51.991 69.1217 50.9424L69.9356 53.1179C69.3252 54.7769 60.138 78.8484 43.0157 89.4129V90.0702C59.825 79.9596 69.0278 57.2029 70.186 53.9631L70.4677 54.73L74.537 53.4153L78.7159 54.9804L79.295 53.7753C84.2864 57.8432 90.0224 60.8999 96.1825 62.7747C99.7771 63.8583 103.509 64.4171 107.264 64.4337C115.089 64.4337 124.182 61.9139 133.26 53.7909L133.62 54.7456L137.689 53.4309L141.868 54.9961L142.291 54.1039C143.652 57.6254 152.746 79.8813 169.258 89.992V89.319C152.292 78.7075 143.245 54.9804 142.651 53.3214L143.59 51.365C144.826 55.1995 152.323 78.0502 169.352 87.3156ZM96.4643 62.2738C90.2966 60.3866 84.5591 57.3078 79.5767 53.2118L80.6879 50.9424C81.5018 51.8189 91.6437 62.2738 105.73 62.7277H106.684C115.574 62.7277 124.167 58.768 132.258 50.9424L133.072 53.1023C119.44 65.4354 105.573 64.9189 96.4486 62.2112L96.4643 62.2738Z" fill="white"/>
<defs>
<linearGradient id="paint0_linear_364_19" x1="106" y1="19" x2="106" y2="163" gradientUnits="userSpaceOnUse">
<stop stop-color="#35A861"/>
<stop offset="1" stop-color="#4A83B9"/>
</linearGradient>
</defs>
</svg>
