<svg width="650" height="161" viewBox="0 0 650 161" fill="none" xmlns="http://www.w3.org/2000/svg">
<g clip-path="url(#clip0_335_47)">
<path d="M0.00292969 112.382V134.881L69.5598 93.9471L139.122 134.881V112.382L69.5598 71.4482L0.00292969 112.382Z" fill="#8B9199"/>
<path d="M69.5596 0.00195312L1.94141 39.1277L20.3236 46.6168L69.5596 18.1279L118.801 46.6168L137.181 39.1277L69.5596 0.00195312Z" fill="#8B9199"/>
<path d="M118.799 51.3814V114.381L111.485 118.613L127.017 127.753L139.12 120.749V43.0996L118.799 51.3814Z" fill="#8B9199"/>
<path d="M0 120.751L12.1034 127.753L27.6381 118.612L20.2633 114.349V51.3573L0 43.0986V120.751Z" fill="#8B9199"/>
<path d="M69.5594 142.873L31.9722 121.121L16.4375 130.262L69.5594 160.999L122.681 130.262L107.152 121.121L69.5594 142.873Z" fill="#8B9199"/>
<path d="M213.096 105V64.1152H227.368V105H242.707V64.1152H256.979V116.101H204.576C196.054 116.101 190.339 114.501 187.428 111.298C184.301 107.883 182.74 103.184 182.74 97.2077V64.1152H197.012V94.965C197.012 98.9488 197.653 101.619 198.93 102.971C200.21 104.325 202.407 105 205.534 105H213.096Z" fill="#8B9199"/>
<path fill-rule="evenodd" clip-rule="evenodd" d="M305.973 84.5021H288.506C282.897 84.5021 278.882 84.9316 276.469 85.7849C273.702 86.7822 271.481 88.6329 269.816 91.3368C268.145 94.0407 267.311 97.1712 267.311 100.728C267.311 106.424 269.442 110.694 273.702 113.539C275.617 114.819 278.281 115.637 281.692 115.995C282.756 116.067 285.595 116.098 290.211 116.098H320.248V86.8514C320.248 82.2277 319.854 78.7051 319.075 76.2837C317.228 70.5906 313.892 66.9614 309.063 65.399C306.365 64.5428 301.717 64.1162 295.11 64.1162H271.038V75.2172H295.11C299.369 75.2172 302.246 75.8571 303.739 77.137C305.228 78.4198 305.973 80.8758 305.973 84.5021ZM289.466 95.6059H305.973V105H289.466C284.421 105 281.902 103.473 281.902 100.408C281.902 97.9899 282.932 96.4967 284.991 95.923C285.773 95.7126 287.263 95.6059 289.466 95.6059Z" fill="#8B9199"/>
<path d="M333.559 64.1152H361.039C364.729 64.1152 367.465 64.2939 369.239 64.6485C372.009 65.2193 374.388 66.4271 376.378 68.2777C379.999 71.6216 381.809 76.891 381.809 84.0774V116.101H367.536V82.4746C367.536 77.6376 365.086 75.2191 360.188 75.2191H347.831V116.101H333.559V64.1152Z" fill="#8B9199"/>
<path d="M438.363 64.1152V75.2191H421.324C416 75.2191 412.146 76.3894 409.767 78.7387C407.386 81.0881 406.198 84.8614 406.198 90.0559C406.198 96.389 408.398 100.765 412.802 103.184C414.933 104.395 418.304 105 422.921 105H438.363V116.101H418.874C413.688 116.101 409.552 115.568 406.466 114.501C403.376 113.432 400.661 111.581 398.317 108.949C393.842 103.971 391.607 97.6314 391.607 89.9464C391.607 80.696 394.27 73.7951 399.594 69.2376C403.569 65.8217 409.998 64.1152 418.874 64.1152H438.363Z" fill="#8B9199"/>
<path d="M461.691 44.8994V64.1149H476.282C484.091 64.1149 489.597 65.6802 492.792 68.8107C495.988 71.9441 497.584 76.8907 497.584 83.6504V116.101H483.312V86.5331C483.312 81.9065 482.653 78.8624 481.342 77.4038C480.027 75.9481 477.312 75.2188 473.193 75.2188H461.691V116.101H447.416V44.8994H461.691Z" fill="#8B9199"/>
<path fill-rule="evenodd" clip-rule="evenodd" d="M545.837 84.5021H528.369C522.76 84.5021 518.745 84.9316 516.332 85.7849C513.562 86.7822 511.342 88.6329 509.676 91.3368C508.008 94.0407 507.174 97.1712 507.174 100.728C507.174 106.424 509.302 110.694 513.562 113.539C515.478 114.819 518.144 115.637 521.552 115.995C522.617 116.067 525.455 116.098 530.075 116.098H560.109V86.8514C560.109 82.2277 559.718 78.7051 558.938 76.2837C557.089 70.5906 553.752 66.9614 548.923 65.399C546.225 64.5428 541.577 64.1162 534.973 64.1162H510.901V75.2172H534.973C539.233 75.2172 542.109 75.8571 543.599 77.137C545.089 78.4198 545.837 80.8758 545.837 84.5021ZM529.327 95.6059H545.837V105H529.327C524.285 105 521.765 103.473 521.765 100.408C521.765 97.9899 522.792 96.4967 524.851 95.923C525.637 95.7126 527.124 95.6059 529.327 95.6059Z" fill="#8B9199"/>
<mask id="mask0_335_47" style="mask-type:alpha" maskUnits="userSpaceOnUse" x="0" y="0" width="650" height="161">
<path fill-rule="evenodd" clip-rule="evenodd" d="M0 161H650V0H0V161Z" fill="white"/>
</mask>
<g mask="url(#mask0_335_47)">
<path fill-rule="evenodd" clip-rule="evenodd" d="M587.695 58.7763H573.42V44.8994H587.695V58.7763ZM587.695 116.101H573.42V64.1149H587.695V116.101Z" fill="#8B9199"/>
</g>
<mask id="mask1_335_47" style="mask-type:alpha" maskUnits="userSpaceOnUse" x="0" y="0" width="650" height="161">
<path fill-rule="evenodd" clip-rule="evenodd" d="M0 161H650V0H0V161Z" fill="white"/>
</mask>
<g mask="url(#mask1_335_47)">
<path d="M601.75 64.1152H629.233C632.923 64.1152 635.656 64.2939 637.433 64.6485C640.203 65.2193 642.579 66.4271 644.569 68.2777C648.19 71.6216 649.999 76.891 649.999 84.0774V116.101H635.727V82.4746C635.727 77.6376 633.28 75.2191 628.379 75.2191H616.025V116.101H601.75V64.1152Z" fill="#8B9199"/>
</g>
</g>
<defs>
<clipPath id="clip0_335_47">
<rect width="650" height="161" fill="white"/>
</clipPath>
</defs>
</svg>
